<?xml version="1.0" encoding="UTF-8" standalone="no"?>
<svg xmlns="http://www.w3.org/2000/svg" xmlns:xlink="http://www.w3.org/1999/xlink" clip-rule="evenodd" stroke-miterlimit="10" viewBox="0 0 577.29 651.97">
    <desc>SVG generated by Lineform</desc>
    <defs/>
    <g>
        <path d="M 205.49 44.99 C 208.94 36.47 223.26 33.88 230.06 36.38 C 237.80 39.23 244.05 50.70 242.08 58.71 C 240.36 65.73 227.34 94.97 222.55 106.54 C 206.57 145.12 220.90 161.60 207.96 178.74 C 203.31 184.90 179.85 190.16 164.13 196.02 C 156.80 198.75 150.24 207.82 153.37 216.97 C 158.25 231.19 172.66 228.64 180.07 226.29 C 216.00 214.88 232.87 207.33 250.88 206.27 C 277.40 204.72 291.43 211.58 319.57 217.39 C 338.39 221.27 358.27 216.15 371.19 207.11 C 372.84 205.96 392.46 193.36 397.82 190.84 C 406.78 186.62 418.97 182.05 431.05 182.45 C 450.09 183.06 466.31 183.63 484.50 184.54 C 495.29 185.08 513.07 188.11 524.38 204.44 C 532.71 216.46 539.39 236.77 526.48 256.96 C 509.89 282.91 486.63 311.67 465.65 365.76 C 456.43 389.53 454.99 391.46 473.53 404.18 C 491.84 416.74 485.15 428.37 482.77 437.28 C 478.79 452.24 455.83 485.26 442.33 502.32 C 427.42 521.15 404.91 542.50 395.40 552.46 C 383.39 565.05 380.99 565.59 359.61 573.36 C 320.52 587.56 293.90 595.25 269.17 603.96 C 239.79 613.60 242.71 614.74 231.26 591.26 C 222.67 573.65 207.04 572.52 192.63 570.57 C 159.02 566.00 141.64 565.90 101.13 566.20 C 68.71 566.44 41.69 546.60 35.07 522.04 C 26.23 489.27 34.24 467.17 40.52 449.17 C 51.79 416.88 68.51 378.73 81.85 346.29 C 120.66 251.93 158.88 159.62 196.84 65.30 Z M 202.11 59.50 " stroke="#B3B3B3" stroke-width="8.00" fill="none"/>
        <path d="M 228.86 210.85 C 251.57 204.56 276.06 205.99 281.36 227.94 C 284.27 240.03 277.12 255.01 260.14 261.23 " stroke="#B3B3B3" stroke-width="5.00" fill="none"/>
        <path d="M 363.99 211.82 C 370.71 208.58 369.91 210.51 373.99 213.84 C 377.18 216.44 382.58 217.20 384.74 214.54 C 389.77 208.37 409.12 186.76 425.61 182.74 " stroke="#B3B3B3" stroke-width="5.00" fill="none"/>
        <path d="M 356.78 233.24 C 367.03 231.84 375.60 230.41 375.04 219.04 C 374.69 211.89 369.57 208.94 362.93 212.31 " stroke="#B3B3B3" stroke-width="5.00" fill="none"/>
        <path d="M 400.37 229.35 C 387.45 229.94 386.49 221.77 386.54 215.90 C 386.57 211.06 412.86 184.28 424.48 183.12 " stroke="#B3B3B3" stroke-width="5.00" fill="none"/>
        <path d="M 121.79 211.78 L 112.21 207.41 L 124.84 192.09 Z M 121.79 211.78 " fill-rule="non-zero" fill="#FF0000"/>
        <path d="M 229.53 38.22 C 215.38 37.14 211.46 51.34 206.68 63.07 C 200.08 79.29 191.65 99.59 187.41 110.05 C 172.17 147.62 161.68 175.09 157.21 184.67 C 153.73 192.14 149.31 199.69 146.08 208.82 C 144.59 213.05 142.82 218.85 142.50 224.22 C 142.32 227.17 140.22 230.91 137.72 232.48 C 126.77 239.32 119.32 264.31 112.25 279.99 " stroke="#000000" stroke-width="3.00" fill="none"/>
        <path d="M 206.05 45.28 C 209.50 36.76 223.82 34.17 230.62 36.68 C 238.36 39.52 244.61 50.99 242.64 59.00 C 240.92 66.03 227.90 95.26 223.11 106.83 C 207.13 145.42 221.46 161.90 208.52 179.04 C 203.87 185.19 180.41 190.45 164.68 196.32 C 157.36 199.05 150.79 208.12 153.93 217.26 C 158.81 231.48 173.22 228.94 180.63 226.59 C 216.56 215.18 233.43 207.62 251.44 206.57 C 277.95 205.01 291.99 211.88 320.13 217.69 C 338.95 221.57 358.82 216.44 371.75 207.40 C 373.40 206.25 393.02 193.66 398.37 191.14 C 407.33 186.92 419.52 182.35 431.61 182.74 C 450.64 183.36 466.87 183.93 485.06 184.84 C 495.85 185.37 513.63 188.41 524.94 204.74 C 533.27 216.76 539.95 237.07 527.04 257.26 C 510.45 283.21 502.57 286.46 477.44 338.25 C 471.80 349.87 456.32 352.69 427.10 345.46 C 408.40 340.83 380.88 323.35 381.15 310.09 C 380.74 308.88 381.37 297.94 403.03 290.03 C 411.54 286.92 428.39 287.72 453.23 277.71 C 471.55 270.32 473.03 258.80 471.49 250.72 C 468.86 236.88 457.95 232.93 440.08 231.24 C 415.13 228.87 405.57 228.66 381.30 230.57 C 308.73 236.28 262.58 258.93 227.86 277.32 C 221.65 280.62 219.51 275.01 216.00 268.91 C 210.31 259.04 204.06 257.02 195.51 259.70 C 186.61 262.50 183.26 269.45 185.44 282.98 C 191.75 322.10 196.28 345.17 202.45 377.04 C 208.62 408.86 190.80 417.44 178.08 418.08 C 123.89 420.80 112.64 413.42 94.88 393.42 C 83.73 380.86 77.26 358.87 90.60 326.43 C 129.41 232.07 159.44 159.91 197.40 65.60 Z M 202.67 59.80 " stroke="#000000" stroke-width="8.00" fill="none"/>
        <g>
            <path d="M 155.28 199.16 L 148.96 196.54 L 151.58 190.22 L 157.91 192.84 Z M 155.28 199.16 " fill-rule="non-zero" fill="#000000"/>
            <path d="M 157.91 192.84 L 151.58 190.22 L 154.21 183.89 L 160.53 186.52 Z M 157.91 192.84 " fill-rule="non-zero" fill="#FFFFFF"/>
            <path d="M 160.53 186.52 L 154.21 183.89 L 156.84 177.57 L 163.16 180.20 Z M 160.53 186.52 " fill-rule="non-zero" fill="#000000"/>
            <path d="M 149.01 196.56 L 142.69 193.93 L 145.32 187.61 L 151.64 190.24 Z M 149.01 196.56 " fill-rule="non-zero" fill="#FFFFFF"/>
            <path d="M 154.27 183.92 L 147.94 181.29 L 150.57 174.97 L 156.89 177.59 Z M 154.27 183.92 " fill-rule="non-zero" fill="#FFFFFF"/>
            <path d="M 151.70 190.26 L 145.37 187.64 L 148.00 181.31 L 154.32 183.94 Z M 151.70 190.26 " fill-rule="non-zero" fill="#000000"/>
            <path d="M 142.75 193.96 L 136.43 191.33 L 139.05 185.01 L 145.37 187.64 Z M 142.75 193.96 " fill-rule="non-zero" fill="#000000"/>
            <path d="M 145.37 187.64 L 139.05 185.01 L 141.68 178.69 L 148.00 181.31 Z M 145.37 187.64 " fill-rule="non-zero" fill="#FFFFFF"/>
            <path d="M 148.00 181.31 L 141.68 178.69 L 144.30 172.37 L 150.63 174.99 Z M 148.00 181.31 " fill-rule="non-zero" fill="#000000"/>
            <path d="M 136.48 191.35 L 130.16 188.73 L 132.79 182.41 L 139.11 185.03 Z M 136.48 191.35 " fill-rule="non-zero" fill="#FFFFFF"/>
            <path d="M 141.73 178.71 L 135.41 176.08 L 138.04 169.76 L 144.36 172.39 Z M 141.73 178.71 " fill-rule="non-zero" fill="#FFFFFF"/>
            <path d="M 139.16 185.06 L 132.84 182.43 L 135.47 176.11 L 141.79 178.73 Z M 139.16 185.06 " fill-rule="non-zero" fill="#000000"/>
            <path d="M 130.23 189.02 L 123.91 186.39 L 126.54 180.07 L 132.86 182.70 Z M 130.23 189.02 " fill-rule="non-zero" fill="#000000"/>
            <path d="M 132.86 182.70 L 126.54 180.07 L 129.16 173.75 L 135.49 176.38 Z M 132.86 182.70 " fill-rule="non-zero" fill="#FFFFFF"/>
            <path d="M 135.49 176.38 L 129.16 173.75 L 131.79 167.43 L 138.11 170.05 Z M 135.49 176.38 " fill-rule="non-zero" fill="#000000"/>
        </g>
        <text xml:space="preserve" font-family="Liberation Sans" font-size="7.00" transform="matrix(1.8681, 0, 0, 1.8681, 0, 0)" opacity="0.49">
            <tspan x="80.58" y="13.01">Tarzanbocht</tspan>
        </text>
        <text xml:space="preserve" font-family="Liberation Sans" font-size="7.00" transform="matrix(1.8681, 0, 0, 1.8681, 0, 0)" opacity="0.49">
            <tspan x="121.35" y="88.29">Gerlach</tspan>
            <tspan x="121.35" y="95.29">bocht</tspan>
        </text>
        <text xml:space="preserve" font-family="Liberation Sans" font-size="7.00" transform="matrix(1.8681, 0, 0, 1.8681, 0, 0)" opacity="0.49">
            <tspan x="79.52" y="132.09">Hugenholtzbocht</tspan>
        </text>
        <text xml:space="preserve" font-family="Liberation Sans" font-size="7.00" transform="matrix(1.8681, 0, 0, 1.8681, 0, 0)" opacity="0.49">
            <tspan x="33.94" y="228.07">Arie</tspan>
            <tspan x="33.94" y="235.07">Luyendijkbocht</tspan>
        </text>
        <text xml:space="preserve" font-family="Liberation Sans" font-size="7.00" transform="matrix(1.8681, 0, 0, 1.8681, 0, 0)" opacity="0.49">
            <tspan x="177.68" y="86.25">Ron </tspan>
            <tspan x="177.68" y="93.25">Slotemaker-</tspan>
            <tspan x="177.68" y="100.25">bocht</tspan>
        </text>
        <text xml:space="preserve" font-family="Liberation Sans" font-size="7.00" transform="matrix(1.8681, 0, 0, 1.8681, 0, 0)" opacity="0.49">
            <tspan x="274.46" y="93.34">Scheivlak</tspan>
        </text>
        <text xml:space="preserve" font-family="Liberation Sans" font-size="7.00" transform="matrix(1.8681, 0, 0, 1.8681, 0, 0)" opacity="0.49">
            <tspan x="100.45" y="300.99">Parnoramabocht</tspan>
        </text>
        <text xml:space="preserve" font-family="Liberation Sans" font-size="7.00" transform="matrix(1.8681, 0, 0, 1.8681, 0, 0)" opacity="0.49">
            <tspan x="255.43" y="208.64">Hondenvlak</tspan>
        </text>
        <text xml:space="preserve" font-family="Liberation Sans" font-size="7.00" transform="matrix(1.8681, 0, 0, 1.8681, 0, 0)" opacity="0.49">
            <tspan x="203.13" y="312.04">Tunnel Oost</tspan>
        </text>
        <text xml:space="preserve" font-family="Liberation Sans" font-size="7.00" transform="matrix(1.8681, 0, 0, 1.8681, 0, 0)" opacity="0.49">
            <tspan x="16.02" y="139.94">Tunnel West</tspan>
        </text>
        <text xml:space="preserve" font-family="Liberation Sans" font-size="7.00" transform="matrix(1.8681, 0, 0, 1.8681, 0, 0)" opacity="0.49">
            <tspan x="25.88" y="282.96">Bos Uit</tspan>
        </text>
        <text xml:space="preserve" font-family="Liberation Sans" font-size="7.00" transform="matrix(1.8681, 0, 0, 1.8681, 0, 0)" opacity="0.49">
            <tspan x="58.59" y="296.45">Pullevelt</tspan>
        </text>
    </g>
</svg>