<?xml version="1.0" encoding="UTF-8" standalone="no"?>
<svg
   width="15360"
   height="8640"
   viewBox="0 0 15360 8640"
   version="1.1"
   id="svg5"
   sodipodi:docname="home.svg"
   inkscape:version="1.3 (0e150ed6c4, 2023-07-21)"
   xmlns:inkscape="http://www.inkscape.org/namespaces/inkscape"
   xmlns:sodipodi="http://sodipodi.sourceforge.net/DTD/sodipodi-0.dtd"
   xmlns="http://www.w3.org/2000/svg"
   xmlns:svg="http://www.w3.org/2000/svg">
  <sodipodi:namedview
     id="namedview2"
     pagecolor="#ffffff"
     bordercolor="#000000"
     borderopacity="0.25"
     inkscape:showpageshadow="2"
     inkscape:pageopacity="0.0"
     inkscape:pagecheckerboard="0"
     inkscape:deskcolor="#d1d1d1"
     inkscape:zoom="0.1582"
     inkscape:cx="5712"
     inkscape:cy="7103"
     inkscape:current-layer="svg5" />
  <defs
     id="defs2asd54654">
            <style id="style2">@media screen and (-webkit-min-device-pixel-ratio:0) {
:root &gt; g {display: none!important; opacity: 0;}
:root &gt; g:target {display: block!important; opacity: 1;}
       }</style>
  </defs>
  <g
     id="world"
     style="display:inline">
    <desc
       id="desc4">Contains ground level artwork</desc>
    <rect
       style="opacity:0.6446;fill:#82b276;fill-opacity:1;stroke-width:1040;stroke-miterlimit:4.3;paint-order:markers fill stroke"
       id="rect1"
       width="15360"
       height="8640"
       x="0"
       y="0" />
    <path
       id="path9"
       style="display:inline;fill:#201912;fill-opacity:1;stroke:#6b6b6b;stroke-width:10.0013;stroke-linecap:square;stroke-miterlimit:4.3;stroke-dasharray:none;stroke-opacity:1;paint-order:markers fill stroke"
       d="m 4604,4803 v 1075 h 5020 v -1075 z" />
    <rect
       style="opacity:0.6446;fill:none;stroke:#ff00df;stroke-width:100.013;stroke-linecap:square;stroke-miterlimit:4.3;paint-order:markers fill stroke"
       id="rect2"
       width="221.5"
       height="629.5"
       x="2646"
       y="-10290"
       transform="rotate(90)" />
    <path
       style="opacity:0.6446;fill:none;stroke:#ff00df;stroke-width:10.0013;stroke-linecap:square;stroke-miterlimit:4.3;stroke-dasharray:none;paint-order:markers fill stroke"
       d="m 10290,2757 c 1970,0 1230,1756 190,1756 -930,0 -1446,-160 -2228,-160"
       id="garagebox" />
  </g>
  <g
     id="track"
     style="display:inline">
    <desc
       id="desc6">Contains track artwork (usually just the asfalt and kerbs) </desc>
    <path
       id="pitlane-surface"
       style="display:inline;fill:none;fill-opacity:0.219;stroke:#4e4e4e;stroke-width:300;stroke-miterlimit:4.3;stroke-dasharray:none;paint-order:markers fill stroke"
       d="m 12620,4498 c 0,367 -130,701 -360,957 -260,302 -650,492 -1090,492 h -1020 -5866 -837 c -866,0 -1562,-701 -1562,-1564" />
    <rect
       style="fill:none;fill-opacity:0.219;stroke:#000000;stroke-width:500.064;stroke-miterlimit:4.3;stroke-dasharray:none;stroke-opacity:1;paint-order:markers fill stroke"
       id="track_surface"
       width="10820"
       height="5567"
       x="1814"
       y="1224"
       rx="1660"
       ry="1660" />
    <path
       id="pitlane"
       style="fill:none;fill-opacity:0.219;stroke:#eacb47;stroke-width:10.0013;stroke-miterlimit:4.3;stroke-dasharray:none;stroke-opacity:1;paint-order:markers fill stroke"
       d="M 5687.402 5927.349 C 5967.863 5892.265 6070.767 6038.459 6603.16 6038.459 L 10905.858 6016.024 C 12308.342 6028.891 12664.865 4936.564 12643.461 4416.591" />
    <path
       id="racetrack"
       style="opacity:0.6354;fill:none;fill-opacity:0.219;stroke:#eacb47;stroke-width:7.65034;stroke-miterlimit:4.3;stroke-dasharray:15.3008, 30.6012;stroke-dashoffset:0;stroke-opacity:1;paint-order:markers"
       d="m 7439,7011 2526,-2 c 1675,-1 2885,-1332 2885,-2983 0,-1651 -1210,-2981 -2885,-2981 h -5483 c -1674,0 -2884,1330 -2884,2981 0,1651 1210,2982 2884,2983 l 2915,1"
       sodipodi:nodetypes="cssssssc">
      <desc
         id="desc1">This &lt;path&gt; element is what gets converted to waypoints for the racing line. &#10;Same goes for the pitlane &lt;path&gt; element, but for the pitlane.&#10;&#10;The path control points in inkscape don't match up with my in-game waypoints&#10; generated from this path though. &#10;&#10;That's because of &#10;path.getTotalLength() and&#10;path.getPointAtLength(length) functions. &#10;&#10;They'll return x and y coordinates in user units (ie, pixels rendered to display)&#10;&#10;Initially I just looped through the path at randomly chosen interval because &#10;I didn't understand the user units entirely but when noticing my interval was &#10;set to 200 and the generated waypoints were all almost exactly &#10;one car's length (230px) spread apart, things clicked.  &#10;(and so I set them 2 car lengths apart for now.)</desc>
    </path>
    <path
       id="pitboxarea"
       style="fill:none;stroke:#ffffff;stroke-width:1.41055;stroke-miterlimit:4.3;stroke-dasharray:11.2844, 1.41055;stroke-dashoffset:1.41055;stroke-opacity:1;paint-order:markers fill stroke"
       d="m 5410,5855 h 229 v 140 h -229" />
    <path
       id="pitbox"
       style="opacity:0.2091;fill:none;stroke:#f8f8f8;stroke-width:5.00064;stroke-miterlimit:4.3;stroke-dasharray:10.0013, 20.0026;stroke-opacity:0.2294;paint-order:markers fill stroke"
       d="m 7680,4571 c -1369,0 -1650,-806 -2203,-158 -76,89 -207,989 -140,1406 20,128 110,106 235,106" />
  </g>
  <g
     id="elevated"
     style="display:inline">
    <desc
       id="desc7">Contains artwork on a layer above the player. This could be buildings, tunnels, trusses, trees etc.</desc>
    <path
       id="rect6"
       style="opacity:1;fill:#b29576;fill-opacity:1;stroke:#6b6b6b;stroke-width:2.00026;stroke-linecap:square;stroke-miterlimit:4.3;stroke-dasharray:none;stroke-opacity:1;paint-order:markers fill stroke"
       d="m 4604,4743 v 1075 h 583 v -125 h 452 v 125 h 138 v -125 h 453 v 125 h 182 v -125 h 452 v 125 h 182 v -125 h 453 v 125 h 182 v -125 h 453 v 125 h 182 v -125 h 452 v 125 h 182 v -125 h 453 v 125 h 221 v -1075 z" />
    <path
       style="fill: rgb(216, 216, 216); stroke: rgb(0, 0, 0);"
       d="M 14161.036 3262.734 L 13379.139 1803.191 L 14525.922 1247.175"
       id="path2" />
  </g>
  <path
     id="rect5"
     style="opacity:1;fill:#ffffff;stroke-width:0;paint-order:markers fill stroke"
     d="m 7029,6783 v 8 h 8 v -8 z m 0,8 h -8 v 8 h 8 z m 0,8 v 8 h 8 v -8 z m 0,8 h -8 v 8 h 8 z m 0,8 v 8 h 8 v -8 z m 0,8 h -8 v 8 h 8 z m 0,8 v 8 h 8 v -8 z m 0,8 h -8 v 8 h 8 z m 0,8 v 8 h 8 v -8 z m 0,8 h -8 v 8 h 8 z m 0,8 v 8 h 8 v -8 z m 0,8 h -8 v 8 h 8 z m 0,8 v 8 h 8 v -8 z m 0,8 h -8 v 8 h 8 z m 0,8 v 8 h 8 v -8 z m 0,8 h -8 v 8 h 8 z m 0,8 v 8 h 8 v -8 z m 0,8 h -8 v 8 h 8 z m 0,8 v 8 h 8 v -8 z m 0,8 h -8 v 8 h 8 z m 0,8 v 8 h 8 v -8 z m 0,8 h -8 v 8 h 8 z m 0,8 v 8 h 8 v -8 z m 0,8 h -8 v 8 h 8 z m 0,8 v 8 h 8 v -8 z m 0,8 h -8 v 8 h 8 z m 0,8 v 8 h 8 v -8 z m 0,8 h -8 v 8 h 8 z m 0,8 v 8 h 8 v -8 z m 0,8 h -8 v 8 h 8 z m 0,8 v 8 h 8 v -8 z m 0,8 h -8 v 8 h 8 z" />
  <path
     id="path12"
     style="opacity:1;fill:#ffffff;stroke-width:0;paint-order:markers fill stroke"
     d="m 7021,6543 h 8 z m 8,0 v 8 h 8 v -8 z m 0,8 h -8 v 8 h 8 z m 0,8 v 8 h 8 v -8 z m 0,8 h -8 v 8 h 8 z m 0,8 v 8 h 8 v -8 z m 0,8 h -8 v 8 h 8 z m 0,8 v 8 h 8 v -8 z m 0,8 h -8 v 8 h 8 z m 0,8 v 8 h 8 v -8 z m 0,8 h -8 v 8 h 8 z m 0,8 v 8 h 8 v -8 z m 0,8 h -8 v 8 h 8 z m 0,8 v 8 h 8 v -8 z m 0,8 h -8 v 8 h 8 z m 0,8 v 8 h 8 v -8 z m 0,8 h -8 v 8 h 8 z m 0,8 v 8 h 8 v -8 z m 0,8 h -8 v 8 h 8 z m 0,8 v 8 h 8 v -8 z m 0,8 h -8 v 8 h 8 z m 0,8 v 8 h 8 v -8 z m 0,8 h -8 v 8 h 8 z m 0,8 v 8 h 8 v -8 z m 0,8 h -8 v 8 h 8 z m 0,8 v 8 h 8 v -8 z m 0,8 h -8 v 8 h 8 z m 0,8 v 8 h 8 v -8 z m 0,8 h -8 v 8 h 8 z m 0,8 v 8 h 8 v -8 z m 0,8 h -8 v 8 h 8 z"
     sodipodi:nodetypes="ccccccccccccccccccccccccccccccccccccccccccccccccccccccccccccccccccccccccccccccccccccccccccccccccccccccccccccccccccccccccccccccccccccccccccccccccccccccccc" />
</svg>
