<?xml version="1.0" encoding="UTF-8" standalone="no"?>
<!-- Created with Inkscape (http://www.inkscape.org/) -->

<svg
   width="30720"
   height="30720"
   viewBox="0 0 30720 30720"
   version="1.1"
   id="svg5"
   xml:space="preserve"
   sodipodi:docname="testtrack.svg"
   inkscape:version="1.3 (0e150ed6c4, 2023-07-21)"
   xmlns:inkscape="http://www.inkscape.org/namespaces/inkscape"
   xmlns:sodipodi="http://sodipodi.sourceforge.net/DTD/sodipodi-0.dtd"
   xmlns="http://www.w3.org/2000/svg"
   xmlns:svg="http://www.w3.org/2000/svg"><sodipodi:namedview
   id="namedview1"
   pagecolor="#ffffff"
   bordercolor="#000000"
   borderopacity="0.25"
   inkscape:showpageshadow="2"
   inkscape:pageopacity="0.0"
   inkscape:pagecheckerboard="0"
   inkscape:deskcolor="#d1d1d1"
   inkscape:zoom="0.04419"
   inkscape:cx="1.703e+04"
   inkscape:cy="2.377e+04"
   inkscape:window-width="2560"
   inkscape:window-height="1376"
   inkscape:window-x="0"
   inkscape:window-y="27"
   inkscape:window-maximized="1"
   inkscape:current-layer="svg5" />&#10;   <defs
   id="defs1">&#10;   <style
   id="style1"> opacity: 1;display: block!important; opacity: 0;display: none!important;</style>&#10;      <style
   id="style2">@media screen and (-webkit-min-device-pixel-ratio:0) {&#10;:root &gt; g {display: none!important; opacity: 0;}&#10;:root &gt; g:target {display: block!important; opacity: 1;}&#10;       }</style>&#10;       </defs>&#10;   <g
   id="world"
   style="display:inline;opacity:1"
   transform="matrix(1.382,-0.3099,0.3099,1.382,-10050,-5956)">&#10;   &#10;   <g
   id="sandtraps"><path
     style="font-variation-settings:normal;opacity:1;vector-effect:none;fill:#0000ff;fill-opacity:1;stroke:none;stroke-width:130;stroke-linecap:round;stroke-linejoin:miter;stroke-miterlimit:4.3;stroke-dasharray:none;stroke-dashoffset:0;stroke-opacity:1;-inkscape-stroke:none;paint-order:markers fill stroke;stop-color:#000000;stop-opacity:1"
     d="m 4458,26760 v 160 c 0,0 -514,60 -790,-110 -275,-170 -647,-240 -761,-460 -113,-220 -356,-900 -210,-1170 146,-270 224,-340 343,-380 119,-40 705,-240 748,-210 42,20 156,190 156,190 0,0 -382,110 -494,220 -113,120 -333,430 -285,670 47,240 244,500 327,570 84,70 418,360 492,390 75,30 474,130 474,130 z"
     id="path80" /><path
     style="font-variation-settings:normal;opacity:1;vector-effect:none;fill:#0000ff;fill-opacity:1;stroke:none;stroke-width:130;stroke-linecap:round;stroke-linejoin:miter;stroke-miterlimit:4.3;stroke-dasharray:none;stroke-dashoffset:0;stroke-opacity:1;-inkscape-stroke:none;paint-order:markers fill stroke;stop-color:#000000;stop-opacity:1"
     d="m 6657,23910 c -105,-200 -121,-200 -101,-220 20,-20 325,-290 658,-320 334,-30 638,80 668,80 30,0 45,160 5,190 -249,10 -495,-10 -747,20 z"
     id="path81" /><path
     style="font-variation-settings:normal;opacity:1;vector-effect:none;fill:#0000ff;fill-opacity:1;stroke:none;stroke-width:130;stroke-linecap:round;stroke-linejoin:miter;stroke-miterlimit:4.3;stroke-dasharray:none;stroke-dashoffset:0;stroke-opacity:1;-inkscape-stroke:none;paint-order:markers fill stroke;stop-color:#000000;stop-opacity:1"
     d="m 8667,23920 c 43,150 81,250 421,150 341,-110 419,-180 471,-230 53,-60 261,-330 293,-400 32,-70 178,-280 168,-300 0,-20 -182,-50 -182,-130 0,-70 -79,10 -79,10 0,0 -478,870 -1092,900 z"
     id="path82" /><path
     style="font-variation-settings:normal;opacity:1;vector-effect:none;fill:#0000ff;fill-opacity:1;stroke:none;stroke-width:130;stroke-linecap:round;stroke-linejoin:miter;stroke-miterlimit:4.3;stroke-dasharray:none;stroke-dashoffset:0;stroke-opacity:1;-inkscape-stroke:none;paint-order:markers fill stroke;stop-color:#000000;stop-opacity:1"
     d="m 15170,23900 c 380,-500 490,-950 490,-950 l -10,-390 c 0,0 -540,140 -570,210 -40,70 90,1130 90,1130 z"
     id="path83" /><path
     style="fill:#0000ff;fill-opacity:1;stroke:none;stroke-width:130;stroke-linecap:round;stroke-miterlimit:4.3;stroke-dasharray:none;stroke-opacity:1;paint-order:markers fill stroke"
     d="m 13780,18580 c -230,-590 -400,-960 -180,-1360 220,-400 340,-590 780,-700 440,-110 830,20 980,80 150,60 1510,720 1510,720 l -1510,-490 c 0,0 -470,20 -710,330 -250,310 -640,1310 -640,1310 0,0 -20,190 90,480 110,290 170,890 170,890 z"
     id="path84" /><path
     style="fill:#0000ff;fill-opacity:1;stroke:none;stroke-width:130;stroke-linecap:round;stroke-miterlimit:4.3;stroke-dasharray:none;stroke-opacity:1;paint-order:markers fill stroke"
     d="m 18150,17730 c 0,0 40,-130 100,-130 70,10 370,170 420,200 40,40 580,810 620,870 40,60 120,260 200,270 70,10 180,-40 180,-130 -10,-80 50,-190 50,-190 l 100,40 c 0,0 140,-50 190,-10 40,30 190,560 -140,740 -330,180 -670,-200 -730,-360 -70,-160 -290,-660 -520,-890 -230,-230 -470,-410 -470,-410 z"
     id="path85" /><path
     style="fill:#0000ff;fill-opacity:1;stroke:none;stroke-width:130;stroke-linecap:round;stroke-miterlimit:4.3;stroke-dasharray:none;stroke-opacity:1;paint-order:markers fill stroke"
     d="m 24480,13090 180,230 c 0,0 210,40 480,-210 280,-260 500,-690 610,-1120 120,-430 20,-800 -240,-1020 -260,-230 -470,-110 -470,-110 300,230 490,480 470,850 -30,360 -210,880 -400,1050 -190,170 -320,310 -630,330 z"
     id="path86" /><path
     style="fill:#0000ff;fill-opacity:1;stroke:none;stroke-width:130;stroke-linecap:round;stroke-miterlimit:4.3;stroke-dasharray:none;stroke-opacity:1;paint-order:markers fill stroke"
     d="m 15300,17440 -100,-120 c 0,0 -660,750 -670,820 -20,60 340,1420 340,1420 l 170,-140 c 0,0 -80,-1000 0,-1250 80,-240 260,-730 260,-730 z"
     id="path87" /></g></g><g
   id="layer1"
   inkscape:label="path"
   transform="matrix(1.382,-0.3099,0.3099,1.382,-10050,-5956)"><path
     style="fill:none;stroke:#00ff00;stroke-width:282.4221;stroke-dasharray:none;stroke-opacity:1"
     d="m 9106,26020 c -838,130 -1675,300 -2503,440 -608,100 -1207,200 -1805,290 -110,10 -230,10 -340,10 -100,-20 -210,-30 -301,-60 -111,-50 -222,-90 -313,-150 -131,-90 -253,-200 -366,-330 -101,-90 -194,-220 -256,-350 -41,-70 -53,-170 -55,-260 -1,-90 7,-190 45,-290 29,-80 98,-150 157,-210 58,-80 127,-130 207,-170 79,-40 159,-60 238,-70 140,-40 280,-40 420,-40 549,-30 1109,-30 1659,-80 80,0 159,-40 218,-80 90,-30 179,-90 237,-170 69,-60 118,-140 166,-230 59,-90 96,-210 165,-310 38,-80 107,-150 186,-190 80,-50 179,-100 268,-120 70,-20 150,-10 230,-20 80,0 170,10 261,30 251,60 502,140 743,190 121,20 221,50 321,40 100,0 199,-20 289,-60 99,-40 198,-100 277,-150 59,-70 128,-130 177,-200 116,-180 203,-370 330,-550 59,-80 137,-140 216,-210 83,-60 183,-120 283,-160 70,-30 150,-50 240,-70 100,-10 210,-30 310,-20 80,10 170,50 250,100 70,20 120,70 170,110 80,80 150,170 220,250 90,110 190,240 290,360 70,90 150,200 260,270 110,80 240,120 350,160 70,30 170,30 250,30 100,0 200,0 310,-20 130,-40 250,-110 370,-190 150,-80 310,-200 450,-320 130,-100 250,-230 360,-370 80,-90 150,-190 210,-300 70,-140 150,-270 190,-410 50,-120 60,-220 90,-350 20,-120 40,-250 60,-390 -10,-130 -10,-260 -10,-400 -20,-130 -40,-290 -80,-430 -50,-190 -130,-350 -200,-540 -190,-480 -400,-960 -570,-1450 -20,-60 0,-140 30,-210 200,-510 430,-1050 680,-1560 20,-50 80,-90 140,-120 40,-20 120,-40 160,-20 1170,350 2360,710 3510,1130 110,50 230,160 310,250 260,320 490,690 750,980 60,50 140,70 220,70 60,0 120,-30 160,-80 20,-50 80,-120 80,-180 0,-70 0,-130 -60,-180 -70,-160 -170,-290 -250,-440 -120,-230 -270,-450 -390,-680 -110,-180 -220,-370 -270,-560 -90,-190 -130,-390 -160,-580 -30,-140 -10,-280 10,-420 10,-120 50,-230 70,-340 80,-190 150,-370 240,-540 120,-210 260,-390 370,-570 100,-130 220,-240 300,-360 190,-170 390,-350 590,-510 180,-150 370,-290 570,-410 200,-110 420,-200 640,-270 180,-60 380,-80 550,-110 180,-20 320,-30 500,-30 650,70 1310,200 1950,250 100,10 240,-40 340,-80 120,-60 220,-150 290,-250 100,-130 200,-290 260,-450 50,-160 110,-350 130,-530 10,-130 10,-270 -30,-390 -60,-130 -150,-270 -250,-360 -150,-150 -530,-160 -580,-160 -140,0 -300,30 -440,80 -260,70 -460,160 -690,260 -260,100 -500,200 -740,320 -240,100 -460,210 -650,330 -680,340 -1300,790 -1900,1250 -320,270 -630,570 -970,840 -380,320 -770,630 -1120,950 -400,330 -790,670 -1150,1000 -550,510 -1130,1010 -1680,1540 -50,60 -90,130 -120,210 -80,260 -120,530 -160,800 -10,220 -30,460 0,700 60,480 160,950 280,1440 100,400 280,800 340,1230 50,220 40,450 20,680 10,30 -10,80 -50,80 -150,70 -320,70 -470,140 -50,30 -90,80 -90,140 -20,140 50,280 50,430 30,160 30,340 10,490 -10,110 -30,200 -80,290 -40,80 -70,170 -120,240 -60,110 -140,200 -220,290 -70,90 -180,160 -260,220 -220,130 -440,240 -670,350 -140,60 -270,120 -420,150 -140,30 -260,60 -390,80 -1280,220 -2560,410 -3844,620 z"
     id="racetrack" /><path
     style="fill:none;fill-opacity:1;stroke:#00ffff;stroke-width:130;stroke-linecap:round;stroke-miterlimit:4.3;stroke-dasharray:none;stroke-opacity:1;paint-order:markers fill stroke"
     d="m 15060,23970 c -910,960 -1220,1140 -3550,1510 l -2671,420 -1316,300 -920,260"
     id="pitlane" /><path
     style="font-variation-settings:normal;opacity:1;vector-effect:none;fill:none;fill-opacity:1;stroke:#00ffff;stroke-width:130;stroke-linecap:round;stroke-linejoin:miter;stroke-miterlimit:4.3;stroke-dasharray:none;stroke-dashoffset:0;stroke-opacity:1;-inkscape-stroke:none;paint-order:markers fill stroke"
     d="m 10880,25260 -2015,340"
     id="paddock" /><rect
     style="fill:#000000;fill-opacity:1;stroke:none;stroke-width:250;stroke-linecap:round;stroke-miterlimit:4.3;paint-order:markers fill stroke"
     id="rect80"
     width="130"
     height="220"
     x="14950"
     y="24410" /></g><g
   id="track"
   style="display:inline"
   transform="matrix(1.382,-0.3099,0.3099,1.382,-10050,-5956)"><path
     style="display:none;fill:none;stroke:#565656;stroke-width:250;stroke-dasharray:none;stroke-opacity:1"
     d="m 9106,26020 c -838,130 -1675,300 -2503,440 -608,100 -1207,200 -1805,290 -335,40 -666,-20 -954,-200 -70,-50 -462,-340 -622,-680 -41,-70 -53,-170 -55,-260 -6,-510 413,-710 647,-740 257,-70 1214,-40 2079,-120 274,-30 497,-250 621,-480 59,-90 96,-210 165,-310 88,-170 279,-270 454,-310 162,-30 331,-20 491,10 251,60 502,140 743,190 121,20 221,50 321,40 100,0 199,-20 289,-60 187,-70 337,-190 454,-350 116,-180 203,-370 330,-550 59,-80 137,-140 216,-210 83,-60 183,-120 283,-160 70,-30 150,-50 240,-70 310,-60 520,20 730,190 80,80 150,170 220,250 90,110 190,240 290,360 70,90 150,200 260,270 110,80 240,120 350,160 120,50 440,30 560,10 100,-30 740,-320 1180,-880 80,-90 150,-190 210,-300 70,-140 150,-270 190,-410 50,-120 60,-220 90,-350 70,-270 90,-810 -30,-1220 -50,-190 -130,-350 -200,-540 -190,-480 -400,-960 -570,-1450 -20,-60 0,-140 30,-210 200,-510 430,-1050 680,-1560 40,-90 170,-170 300,-140 1170,350 2360,710 3510,1130 110,50 230,160 310,250 260,320 490,690 750,980 250,210 570,-70 400,-370 -90,-150 -170,-290 -250,-440 -120,-230 -270,-450 -390,-680 -150,-250 -340,-600 -430,-1140 -100,-480 280,-1220 320,-1300 310,-580 760,-1030 1260,-1440 180,-150 370,-290 570,-410 200,-110 420,-200 640,-270 100,-30 450,-140 1050,-140 650,0 1310,200 1950,250 60,10 410,-20 630,-330 100,-130 200,-290 260,-450 50,-160 110,-350 130,-530 10,-130 10,-270 -30,-390 -130,-290 -300,-510 -830,-520 -550,-10 -1720,580 -2520,990 -670,350 -1300,790 -1900,1250 -320,270 -630,570 -970,840 -380,320 -770,630 -1120,950 -400,330 -790,670 -1150,1000 -550,510 -1130,1010 -1680,1540 -50,60 -90,130 -120,210 -80,260 -120,530 -160,800 -10,220 -30,460 0,700 60,480 160,950 280,1440 200,630 420,1240 360,1910 0,110 -160,140 -300,150 -180,10 -320,150 -310,310 20,310 60,510 60,820 0,820 -1370,1500 -2160,1620 -1280,190 -2560,410 -3844,620 z"
     id="path1" /><path
     style="color:#000000;fill:#565656;stroke:#fffefe;stroke-width:2;stroke-dasharray:none;stroke-opacity:0.9485"
     d="m 24610,10750 c -320,0 -730,150 -1180,340 -470,200 -970,450 -1370,660 v 0 0 c -680,350 -1310,800 -1920,1260 v 0 0 c -320,280 -630,580 -970,840 v 0 0 c -380,320 -770,630 -1120,960 -400,330 -790,670 -1150,1000 v 0 0 c -370,340 -750,680 -1130,1020 -320,-90 -630,-190 -940,-280 h -10 v 0 c -200,-50 -370,50 -440,210 v 0 c -250,510 -480,1050 -690,1560 -30,90 -70,190 -30,300 v 0 0 c 170,500 390,980 570,1460 80,190 150,350 200,520 v 0 10 c 110,370 90,910 30,1150 v 0 0 c -30,140 -40,230 -80,330 l -10,10 v 10 c -30,110 -110,240 -180,380 -60,100 -120,200 -190,280 h -10 v 0 c -210,270 -470,470 -680,610 -110,70 -210,130 -290,170 -70,30 -120,50 -140,60 -50,10 -150,20 -250,20 -100,0 -210,-20 -230,-20 v -10 h -10 c -110,-40 -230,-80 -320,-140 v 0 0 c -90,-60 -160,-150 -230,-250 v 0 0 c -100,-120 -200,-250 -290,-360 v 0 h -10 c -60,-80 -130,-170 -220,-260 h -10 v -10 c -230,-180 -490,-280 -830,-210 v 0 h -10 c -90,20 -170,40 -260,80 -110,40 -217,100 -306,170 h -5 l -5,10 c -75,60 -161,130 -234,230 v 0 h -1 c -135,190 -222,380 -331,550 -104,140 -232,240 -395,300 h -3 l -4,10 c -73,30 -155,50 -238,50 h -6 -6 c -67,0 -157,-20 -285,-40 -232,-50 -481,-130 -738,-190 h -3 -3 c -171,-30 -355,-50 -537,-10 h -2 -3 c -197,40 -419,150 -533,370 -81,120 -119,240 -163,300 l -2,10 h -3 c -110,210 -309,390 -524,420 -426,40 -879,50 -1258,60 -374,10 -660,10 -832,60 -141,20 -319,80 -472,220 -156,130 -279,350 -276,640 v 0 0 c 2,100 10,210 69,320 183,380 584,670 660,720 h 3 l 4,10 c 314,190 676,260 1035,210 h 2 2 c 599,-90 1198,-190 1806,-290 h 1 v 0 c 831,-140 1667,-310 2501,-440 h 1 v 0 c 1284,-210 2564,-430 3844,-620 v 0 0 c 420,-60 970,-260 1420,-560 460,-300 850,-700 850,-1180 0,-320 -50,-520 -60,-830 -10,-80 70,-170 190,-170 v 0 0 c 70,-10 160,-20 240,-50 40,-20 80,-40 110,-80 40,-30 60,-90 70,-140 60,-700 -170,-1330 -370,-1950 -120,-490 -220,-950 -280,-1430 -20,-220 -10,-450 10,-670 30,-260 70,-520 150,-770 20,-60 50,-120 90,-160 150,-140 290,-280 440,-420 810,250 1630,520 2420,810 80,30 190,130 270,210 250,310 480,680 750,980 v 10 l 10,10 c 170,140 390,120 520,0 130,-120 180,-340 70,-530 v 0 0 c -90,-150 -170,-290 -250,-440 v 0 c -120,-240 -270,-460 -390,-680 v 0 0 c -150,-250 -330,-580 -420,-1100 v 0 0 c -40,-200 20,-490 110,-740 80,-240 180,-440 200,-480 300,-560 740,-1000 1230,-1400 v 0 0 c 180,-150 360,-290 550,-400 190,-110 410,-190 620,-260 100,-30 430,-130 1010,-130 620,0 1280,190 1940,240 40,10 70,10 120,0 50,-10 120,-20 190,-50 140,-50 310,-150 430,-330 v 10 c 110,-140 210,-310 280,-490 v 0 0 c 50,-160 110,-360 130,-560 v 0 h 10 c 10,-140 10,-290 -40,-440 v 0 l -10,-10 c -60,-150 -150,-300 -300,-410 -150,-120 -360,-180 -640,-180 v 0 0 c -10,0 -20,0 -30,0 z m 30,250 c 0,0 0,0 0,0 250,0 390,50 490,130 100,70 160,170 220,310 30,90 40,210 30,330 -20,160 -80,340 -130,500 -50,140 -140,290 -240,410 v 10 0 c -90,130 -210,200 -320,240 -50,20 -100,30 -130,30 -40,10 -70,0 -60,10 v 0 h -10 c -620,-50 -1280,-250 -1960,-250 -610,0 -990,110 -1090,140 v 0 0 c -220,70 -450,170 -660,280 v 0 0 c -210,130 -410,270 -590,420 -510,420 -970,880 -1290,1480 v 0 0 c -20,40 -130,260 -220,520 -90,260 -170,580 -110,860 90,560 290,930 440,1180 130,240 270,460 390,680 v 0 0 c 80,150 160,290 250,440 60,110 30,180 -20,220 -40,50 -100,60 -180,0 -250,-280 -480,-640 -740,-970 v 0 h -10 c -80,-100 -210,-220 -350,-280 v -10 h -10 c -750,-270 -1520,-520 -2300,-760 350,-310 690,-620 1020,-930 h 10 c 350,-330 740,-660 1140,-990 v -10 0 c 350,-310 740,-620 1120,-940 340,-280 650,-580 970,-840 600,-460 1220,-890 1880,-1240 400,-200 890,-450 1340,-650 460,-190 890,-330 1120,-320 z m -9900,5790 c 10,0 10,0 20,0 260,80 530,160 790,240 -110,110 -220,210 -340,320 v 10 h -10 c -60,70 -100,150 -140,250 v 0 0 c -80,280 -120,550 -160,820 v 10 0 c -10,220 -40,470 0,730 60,480 160,960 280,1450 v 0 10 c 200,630 410,1220 360,1860 -10,0 -10,0 -20,10 -40,10 -100,20 -170,30 v 0 c -240,10 -440,200 -420,440 v 0 0 c 20,320 60,510 60,810 0,340 -310,690 -730,970 -430,270 -960,470 -1330,530 -1280,190 -2560,410 -3844,620 -841,130 -1679,300 -2503,440 -608,100 -1205,200 -1801,290 -309,30 -607,-20 -868,-180 -69,-50 -442,-340 -579,-630 l -2,-10 h -3 c -20,-40 -36,-120 -38,-200 -2,-220 81,-360 191,-460 111,-90 255,-140 347,-160 h 8 9 c 86,-20 403,-40 782,-50 379,-10 837,-20 1276,-70 h 1 1 c 330,-30 576,-280 715,-540 71,-110 106,-220 160,-300 l 4,-10 h 4 c 63,-120 219,-210 369,-250 140,-20 292,-10 439,10 244,60 495,140 744,190 h 2 3 c 110,20 217,60 346,50 114,-10 227,-30 332,-70 208,-80 378,-220 507,-400 h 2 2 c 122,-190 208,-380 326,-550 45,-60 112,-110 188,-180 80,-60 170,-110 260,-140 v 0 0 c 60,-30 130,-50 220,-70 270,-50 430,10 620,160 70,70 130,160 200,240 90,110 190,240 290,360 70,90 160,210 290,290 130,100 270,140 380,180 h -10 c 100,40 220,40 330,40 120,0 230,-10 300,-30 h 10 10 c 40,-10 100,-40 180,-80 90,-40 190,-100 310,-180 240,-150 520,-370 750,-660 80,-100 160,-200 220,-320 v 0 0 c 70,-140 150,-270 200,-430 50,-130 60,-240 90,-360 80,-300 100,-840 -30,-1280 -50,-210 -140,-370 -200,-550 v 0 -10 c -190,-480 -400,-960 -570,-1440 0,0 0,-60 30,-120 v 0 0 c 200,-510 420,-1050 670,-1550 v -10 0 c 10,-20 80,-70 140,-70 z"
     id="path2" /></g></svg>
