<?xml version="1.0" encoding="utf-8"?>
<svg width="30720" height="30720" viewBox="0 0 30720 30720" version="1.1" id="svg5" xmlns="http://www.w3.org/2000/svg" xmlns:xlink="http://www.w3.org/1999/xlink">
  <defs id="defs2">
    <style id="style2">@media screen and (-webkit-min-device-pixel-ratio:0) {
:root &gt; g {display: none!important; opacity: 0;}
:root &gt; g:target {display: block!important; opacity: 1;}
       }</style>
    <pattern preserveAspectRatio="xMidYMid" id="pattern80" patternTransform="matrix(3.535,3.535,-3.535,3.535,0,0)" x="0" y="0" xlink:href="#Strips1_3"/>
    <pattern patternUnits="userSpaceOnUse" width="4" height="1" patternTransform="translate(0,0) scale(2,2)" preserveAspectRatio="xMidYMid" id="Strips1_3" style="fill:#ffe842">
      <rect style="stroke:none" x="0" y="-0.5" width="1" height="2" id="rect152"/>
    </pattern>
  </defs>
  <g id="world" style="display:inline">
    <g id="layer4" style="display:inline">
      <path style="display:inline;opacity:1;fill:#d9f5b7;fill-opacity:1;stroke:#a6cc92;stroke-width:5;stroke-dasharray:none;stroke-opacity:1;paint-order:markers fill stroke" d="m 12360,25950 c 510,0 4240,1010 4720,540 470,-470 2110,-1730 2450,-2530 350,-810 820,-2040 1400,-2130 590,-80 2980,1800 3510,1710 520,-100 1250,-1150 1500,-1900 260,-750 650,-2160 1030,-2790 380,-630 2630,-2640 2630,-3460 0,-810 -710,-3220 -1890,-3500 -1170,-280 -4090,-930 -5870,-310 -1790,630 -3540,1770 -4770,1770 -1240,0 -4930,-1550 -5190,-1810 -260,-250 -410,-2079 -120,-2835 290,-755 1530,-3154 1530,-3154 0,0 720,-1208 140,-1681 -570,-473 -1540,-1336 -2010,-1290 -470,47 -3277,328 -3883,843 -606,514 -1632,1227 -2268,1299 -636,71 -1613,2181 -1355,3740 258,1558 372,3468 -76,4398 -448,940 -1025,3700 -1509,4030 -485,320 -2060.9,2610 -1944.8,3520 116.2,900 1113.8,5630 2123.8,5630 1486,0 3735,1190 7692,1190 600,90 1660,-1280 2160,-1280 z" id="path16"/>
      <path id="path10" style="display:inline;fill:#f9f4d4;fill-opacity:1;stroke:#dcd398;stroke-width:5;stroke-dasharray:none;stroke-opacity:1;paint-order:markers fill stroke" d="m 10900,3204 c -30,0 -60,3 -70,8 -90,43 -310,810 -360,895 -60,86 -40,395 -40,395 l 1010,-393 800,360 290,794 -360,1335 c 0,0 100,119 190,95 80,-24 520,-959 690,-1750 180,-792 -380,-1081 -800,-1369 -380,-251 -1110,-372 -1350,-370 z m 130,8216 c -30,0 -40,10 -40,10 0,0 -350,480 -1173,920 -823,440 -943,540 -943,540 1126,10 2226,-130 2306,-280 80,-150 200,-700 50,-980 -90,-170 -160,-210 -200,-210 z m 15540,590 c -450,0 -1020,30 -1540,70 l 2070,570 990,1300 260,1450 -990,1660 -140,430 c 0,0 580,-490 700,-490 110,-10 410,-560 410,-560 0,0 60,-180 270,-400 210,-210 520,-810 530,-1550 10,-740 -630,-1390 -860,-1660 -230,-260 -610,-700 -800,-780 -90,-30 -440,-50 -900,-40 z m -2760,2120 c -580,-10 -1160,170 -1470,180 -410,20 -230,260 -230,260 0,0 2020,170 2210,390 190,220 800,610 610,1200 -190,580 -360,880 -360,880 460,-150 1430,-560 1450,-640 20,-90 -290,-570 -510,-1010 -220,-450 -420,-990 -1140,-1190 -180,-50 -370,-70 -560,-70 z m -13400,2150 -766,340 c 0,0 42,160 97,260 54,100 162,40 259,110 100,70 130,280 180,460 50,190 200,120 390,130 190,10 90,-60 730,-320 z m 11720,1160 c 0,0 -480,150 -1010,100 -520,-50 -670,0 -1080,120 -420,120 -1090,540 -1210,640 -110,100 -160,180 -160,180 0,0 150,90 320,370 170,280 360,440 880,310 0,0 320,-370 530,-860 200,-490 1800,-670 1840,-760 30,-90 -110,-100 -110,-100 z m 3150,3370 c -1190,440 -2400,360 -3610,390 0,0 2400,1200 2570,1240 170,50 220,10 220,10 0,0 450,-990 820,-1640 z m -14730,2200 c 0,0 -190,750 -440,1430 -261,670 -1895,510 -2231,560 -336,60 -1063,-10 -1063,-10 636,320 1483,590 2500,550 1014,-40 1454,-720 1564,-1050 110,-320 -330,-1480 -330,-1480 z"/>
    </g>
    <path id="rect9-7" style="display:inline;opacity:1;fill:#9b9b9b;stroke:#9b9b9b;stroke-width:5;paint-order:markers fill stroke" transform="rotate(22.68)" d="m 11980,1143 1370,34 110,3171 c 170,940 720,1349 700,2169 -20,820 -1720,1344 -1770,2753 l -400,106 z"/>
    <g id="g31" style="display:inline">
      <path style="display:inline;fill:#a6cc92;fill-opacity:1;stroke:#a6cc92;stroke-width:5.93331;stroke-dasharray:none;stroke-opacity:1;paint-order:markers fill stroke" d="m 13730,19210 c 740,-260 1010,-540 1360,-500 330,30 770,490 770,940 0,460 -40,710 -50,1000 0,300 -400,460 -620,600 -200,140 -270,410 -710,520 -440,120 -1010,100 -1270,-40 -260,-140 -360,-160 -520,-150 -170,30 -370,20 -490,320 -110,310 170,700 10,920 -170,210 -360,490 -550,710 -190,210 -470,-120 -620,-230 -160,-120 -300,-580 -300,-580 0,0 -70,-420 -60,-820 20,-400 -60,-710 110,-750 180,-40 140,-80 440,-280 290,-200 900,-170 1020,-350 120,-180 20,-580 340,-860 330,-280 990,-600 990,-600 z" id="path24-6"/>
    </g>
    <g id="g29" style="display:inline">
      <path style="opacity:1;fill:#b9e7e9;fill-opacity:1;stroke:#50c3c8;stroke-width:5;stroke-dasharray:none;stroke-opacity:1;paint-order:markers fill stroke" d="m 13610,19250 c 1230,-440 1750,-480 1750,290 0,780 150,1240 -200,1490 -340,250 -1430,620 -1870,390 -450,-220 -680,-310 -870,220 -180,520 -490,800 -800,1160 -310,370 -680,-200 -680,-200 0,0 -100,-1320 210,-1390 300,-70 1060,-570 1260,-870 210,-290 1200,-1090 1200,-1090 z" id="path24"/>
      <path style="opacity:1;fill:#b9e7e9;fill-opacity:1;stroke:#50c3c8;stroke-width:5;stroke-dasharray:none;stroke-opacity:1;paint-order:markers fill stroke" d="m 14700,25200 c -310,20 -610,40 -900,60 -280,20 -540,30 -760,30 -230,0 -420,-10 -560,-50 -130,-30 -220,-90 -240,-190 -20,-100 -10,-180 20,-270 40,-80 90,-160 150,-230 60,-70 140,-130 210,-190 70,-60 140,-110 200,-160 60,-50 170,-110 310,-190 130,-80 290,-160 450,-240 160,-90 310,-170 450,-240 130,-70 240,-140 300,-180 60,-40 140,-90 220,-150 90,-50 190,-110 290,-160 100,-60 200,-110 290,-150 90,-40 170,-80 230,-100 60,-20 150,-50 250,-80 100,-30 210,-60 320,-80 110,-20 220,-30 310,-20 90,0 170,30 220,90 50,60 130,160 210,290 90,120 180,270 270,420 90,150 180,310 250,440 60,130 110,240 120,310 10,70 30,170 40,280 10,120 10,240 0,360 -10,120 -30,230 -80,320 -50,90 -120,150 -230,170 -100,20 -210,60 -320,90 -110,40 -230,90 -340,120 -120,40 -240,70 -360,80 -120,10 -240,10 -360,-30 -120,-40 -230,-80 -310,-120 -90,-40 -160,-80 -220,-120 -70,-30 -130,-60 -200,-80 -70,-20 -140,-30 -230,-30 z" id="path25"/>
      <path style="opacity:1;fill:#b9e7e9;fill-opacity:1;stroke:#50c3c8;stroke-width:5;stroke-dasharray:none;stroke-opacity:1;paint-order:markers fill stroke" d="m 18410,16400 c 60,-500 -100,-1190 590,-1100 680,90 1280,-70 1380,-60 100,20 -230,250 -310,710 -80,460 200,940 -470,1190 -670,240 -950,480 -1230,590 -40,20 -140,-70 -170,-250 -90,-410 210,-1080 210,-1080 z" id="path27"/>
      <path style="opacity:1;fill:#b9e7e9;fill-opacity:1;stroke:#50c3c8;stroke-width:5;stroke-dasharray:none;stroke-opacity:1;paint-order:markers fill stroke" d="m 24040,20180 c 200,10 350,-90 440,-320 90,-230 240,-610 390,-690 150,-90 360,-560 360,-750 -10,-190 -470,-220 -670,-80 -200,140 -820,390 -1060,360 -250,-20 -820,170 -640,560 180,400 730,930 1180,920 z" id="path28"/>
    </g>
    <path style="fill:none;fill-opacity:1;stroke:#9b9b9b;stroke-width:250;stroke-dasharray:none;stroke-opacity:1;paint-order:markers fill stroke" d="m -3047,25430 c 224,-60 1363,-510 1575,-720 545.3,-540 1614.5,-2870 2356.7,-4160 508.3,-890 135.3,-1710 681.3,-2400 396,-510 742,-840 1102,-1130 435,-340 758,-430 1358,-170 l 3081,1320" id="path41"/>
    <path style="opacity:1;fill:none;fill-opacity:1;stroke:#9b9b9b;stroke-width:250;stroke-dasharray:none;stroke-opacity:1;paint-order:markers fill stroke" d="m 4026,16850 c -450,-510 -17,-580 169,-1090 0,0 1336,-2760 1456,-3140 120,-380 379,-70 487,-290 108,-220 2097,-5025 2097,-5025 0,0 453,-890 929,-615 475,275 1016,496 1016,496" id="path42"/>
    <path style="fill:none;fill-opacity:1;stroke:#cbcbcb;stroke-width:6;stroke-dasharray:24, 48;stroke-dashoffset:0;stroke-opacity:1;paint-order:markers fill stroke" d="m -3047,25430 c 224,-60 1363,-510 1575,-720 545.3,-540 1614.5,-2870 2356.7,-4160 508.3,-890 135.3,-1710 681.3,-2400 396,-510 742,-840 1102,-1130 435,-340 758,-430 1358,-170 l 3081,1320" id="path43"/>
    <path style="opacity:1;fill:none;fill-opacity:1;stroke:#cbcbcb;stroke-width:6;stroke-dasharray:24, 48;stroke-dashoffset:0;stroke-opacity:1;paint-order:markers fill stroke" d="m 4026,16850 c -450,-510 -17,-580 169,-1090 0,0 1336,-2760 1456,-3140 120,-380 379,-70 487,-290 108,-220 2097,-5025 2097,-5025 0,0 453,-890 929,-615 475,275 1066,505 1066,505" id="path44"/>
    <rect style="opacity:1;fill:none;fill-opacity:1;stroke:#eeeeee;stroke-width:5;stroke-dasharray:none;stroke-dashoffset:0;stroke-opacity:1;paint-order:markers fill stroke" id="rect57" width="557.2" height="151.6" x="1.262e+04" y="6246" rx="0" ry="0" transform="rotate(22.16)"/>
    <path style="opacity:1;fill:none;fill-opacity:1;stroke:#cbcbcb;stroke-width:6;stroke-dasharray:24, 24;stroke-dashoffset:0;stroke-opacity:1;paint-order:markers fill stroke" d="m 10920,8180 c 0,0 -290,-98 -440,-156 -150,-57 -200,-75 -350,-133 -149,-58 -153,-106 -90,-263 l 190,-433" id="path60"/>
    <path style="opacity:1;fill:none;fill-opacity:1;stroke:#cbcbcb;stroke-width:6;stroke-dasharray:none;stroke-dashoffset:0;stroke-opacity:1;paint-order:markers fill stroke" d="m 10680,8624 c 120,-316 -10,-436 -180,-507 -170,-70 -410,-171 -509,-209 -93,-38 -92,-119 -52,-220 39,-101 181,-416 181,-416" id="path61"/>
    <path style="opacity:1;fill:none;fill-opacity:1;stroke:#cbcbcb;stroke-width:6;stroke-dasharray:none;stroke-dashoffset:0;stroke-opacity:1;paint-order:markers fill stroke" d="m 10700,8017 c -170,-70 -410,-171 -510,-209 -90,-38 -90,-119 -50,-220 40,-101 180,-416 180,-416" id="path62"/>
    <rect style="opacity:1;fill:none;fill-opacity:1;stroke:#eeeeee;stroke-width:5;stroke-dasharray:none;stroke-dashoffset:0;stroke-opacity:1;paint-order:markers fill stroke" id="use62" width="557.2" height="151.6" x="1.262e+04" y="6246" rx="0" ry="0" transform="matrix(0.9261341427951912, 0.37719431272093223, -0.37719431272093223, 0.9261341427951912, -60.650001525878906, 139)"/>
    <rect style="opacity:1;fill:none;fill-opacity:1;stroke:#eeeeee;stroke-width:5;stroke-dasharray:none;stroke-dashoffset:0;stroke-opacity:1;paint-order:markers fill stroke" id="use63" width="557.2" height="151.6" x="1.262e+04" y="6246" rx="0" ry="0" transform="matrix(0.9261341691017151, 0.37719428539276123, -0.37719428539276123, 0.9261341691017151, -117.83000183105469, 279.3999938964844)"/>
    <rect style="opacity:1;fill:none;fill-opacity:1;stroke:#eeeeee;stroke-width:5;stroke-dasharray:none;stroke-dashoffset:0;stroke-opacity:1;paint-order:markers fill stroke" id="use64" width="557.2" height="151.6" x="1.262e+04" y="6246" rx="0" ry="0" transform="matrix(0.9261341691017151, 0.37719428539276123, -0.37719428539276123, 0.9261341691017151, -175.01000213623047, 419.79998779296875)"/>
    <rect style="opacity:1;fill:none;fill-opacity:1;stroke:#eeeeee;stroke-width:5;stroke-dasharray:none;stroke-dashoffset:0;stroke-opacity:1;paint-order:markers fill stroke" id="rect64" width="557.2" height="151.6" x="1.262e+04" y="6918" rx="0" ry="0" transform="rotate(22.16)"/>
    <rect style="opacity:1;fill:none;fill-opacity:1;stroke:#eeeeee;stroke-width:5;stroke-dasharray:none;stroke-dashoffset:0;stroke-opacity:1;paint-order:markers fill stroke" id="use65" width="557.2" height="151.6" x="1.262e+04" y="6246" rx="0" ry="0" transform="matrix(0.9261341427951912, 0.37719431272093223, -0.37719431272093223, 0.9261341427951912, -314.20001220703125, 758.7000122070312)"/>
    <rect style="opacity:1;fill:none;fill-opacity:1;stroke:#eeeeee;stroke-width:5;stroke-dasharray:none;stroke-dashoffset:0;stroke-opacity:1;paint-order:markers fill stroke" id="use66" width="557.2" height="151.6" x="1.262e+04" y="6246" rx="0" ry="0" transform="matrix(0.9261341691017151, 0.37719428539276123, -0.37719428539276123, 0.9261341691017151, -371.35001373291016, 899.0999755859375)"/>
    <rect style="opacity:1;fill:none;fill-opacity:1;stroke:#eeeeee;stroke-width:5;stroke-dasharray:none;stroke-dashoffset:0;stroke-opacity:1;paint-order:markers fill stroke" id="use67" width="557.2" height="151.6" x="1.262e+04" y="6246" rx="0" ry="0" transform="matrix(0.9261341691017151, 0.37719428539276123, -0.37719428539276123, 0.9261341691017151, -428.53001403808594, 1039.4999694824219)"/>
    <rect style="opacity:1;fill:none;fill-opacity:1;stroke:#eeeeee;stroke-width:5;stroke-dasharray:none;stroke-dashoffset:0;stroke-opacity:1;paint-order:markers fill stroke" id="rect67" width="557.2" height="151.6" x="1.262e+04" y="5432" rx="0" ry="0" transform="rotate(22.16)"/>
    <rect style="opacity:1;fill:none;fill-opacity:1;stroke:#eeeeee;stroke-width:5;stroke-dasharray:none;stroke-dashoffset:0;stroke-opacity:1;paint-order:markers fill stroke" id="use68" width="557.2" height="151.6" x="1.262e+04" y="6246" rx="0" ry="0" transform="matrix(0.9261341427951912, 0.37719431272093223, -0.37719431272093223, 0.9261341427951912, 247.60000610351562, -613.9000244140625)"/>
    <rect style="opacity:1;fill:none;fill-opacity:1;stroke:#eeeeee;stroke-width:5;stroke-dasharray:none;stroke-dashoffset:0;stroke-opacity:1;paint-order:markers fill stroke" id="use69" width="557.2" height="151.6" x="1.262e+04" y="6246" rx="0" ry="0" transform="matrix(0.9261341691017151, 0.37719428539276123, -0.37719428539276123, 0.9261341691017151, 190.3499984741211, -473.5)"/>
    <rect style="opacity:1;fill:none;fill-opacity:1;stroke:#eeeeee;stroke-width:5;stroke-dasharray:none;stroke-dashoffset:0;stroke-opacity:1;paint-order:markers fill stroke" id="use70" width="557.2" height="151.6" x="1.262e+04" y="6246" rx="0" ry="0" transform="matrix(0.9261341691017151, 0.37719428539276123, -0.37719428539276123, 0.9261341691017151, 133.1699981689453, -333.1000061035156)"/>
    <rect style="opacity:1;fill:none;fill-opacity:1;stroke:#eeeeee;stroke-width:5;stroke-dasharray:none;stroke-dashoffset:0;stroke-opacity:1;paint-order:markers fill stroke" id="rect70" width="557.2" height="151.6" x="1.262e+04" y="4765" rx="0" ry="0" transform="rotate(22.16)"/>
    <rect style="opacity:1;fill:none;fill-opacity:1;stroke:#eeeeee;stroke-width:5;stroke-dasharray:none;stroke-dashoffset:0;stroke-opacity:1;paint-order:markers fill stroke" id="use71" width="557.2" height="151.6" x="1.262e+04" y="6246" rx="0" ry="0" transform="matrix(0.9261341427951912, 0.37719431272093223, -0.37719431272093223, 0.9261341427951912, 502, -1232)"/>
    <rect style="opacity:1;fill:none;fill-opacity:1;stroke:#eeeeee;stroke-width:5;stroke-dasharray:none;stroke-dashoffset:0;stroke-opacity:1;paint-order:markers fill stroke" id="use72" width="557.2" height="151.6" x="1.262e+04" y="6246" rx="0" ry="0" transform="matrix(0.9261341691017151, 0.37719428539276123, -0.37719428539276123, 0.9261341691017151, 444.74999237060547, -1091)"/>
    <rect style="opacity:1;fill:none;fill-opacity:1;stroke:#eeeeee;stroke-width:5;stroke-dasharray:none;stroke-dashoffset:0;stroke-opacity:1;paint-order:markers fill stroke" id="use73" width="557.2" height="151.6" x="1.262e+04" y="6246" rx="0" ry="0" transform="matrix(0.9261341691017151, 0.37719428539276123, -0.37719428539276123, 0.9261341691017151, 387.5699920654297, -950.6000061035156)"/>
    <rect style="opacity:1;fill:none;fill-opacity:1;stroke:#eeeeee;stroke-width:5;stroke-dasharray:none;stroke-dashoffset:0;stroke-opacity:1;paint-order:markers fill stroke" id="rect73" width="557.2" height="151.6" x="1.262e+04" y="4095" rx="0" ry="0" transform="rotate(22.16)"/>
    <rect style="opacity:1;fill:none;fill-opacity:1;stroke:#eeeeee;stroke-width:5;stroke-dasharray:none;stroke-dashoffset:0;stroke-opacity:1;paint-order:markers fill stroke" id="use74" width="557.2" height="151.6" x="1.262e+04" y="6246" rx="0" ry="0" transform="matrix(0.9261341427951912, 0.37719431272093223, -0.37719431272093223, 0.9261341427951912, 757.0999755859375, -1850)"/>
    <rect style="opacity:1;fill:none;fill-opacity:1;stroke:#eeeeee;stroke-width:5;stroke-dasharray:none;stroke-dashoffset:0;stroke-opacity:1;paint-order:markers fill stroke" id="use75" width="557.2" height="151.6" x="1.262e+04" y="6246" rx="0" ry="0" transform="matrix(0.9261341691017151, 0.37719428539276123, -0.37719428539276123, 0.9261341691017151, 699.8499984741211, -1709)"/>
    <rect style="opacity:1;fill:none;fill-opacity:1;stroke:#eeeeee;stroke-width:5;stroke-dasharray:none;stroke-dashoffset:0;stroke-opacity:1;paint-order:markers fill stroke" id="use76" width="557.2" height="151.6" x="1.262e+04" y="6246" rx="0" ry="0" transform="matrix(0.9261341691017151, 0.37719428539276123, -0.37719428539276123, 0.9261341691017151, 642.6699981689453, -1568.6000061035156)"/>
    <rect style="fill:url(#pattern80);fill-opacity:1;stroke:#ffe842;stroke-width:5;stroke-dasharray:none;stroke-dashoffset:0;stroke-opacity:1;paint-order:markers fill stroke" id="use77" width="557.2" height="151.6" x="1.262e+04" y="6067" rx="0" ry="0" transform="rotate(22.16)"/>
  </g>
  <g id="g28">
    <rect style="opacity:1;fill:#f9f4d4;fill-opacity:1;stroke:#f9f4d4;stroke-width:5;stroke-dasharray:none;stroke-opacity:1;paint-order:markers fill stroke" id="rect16" width="1584" height="1584" x="32890" y="18460" rx="50.47" ry="50.47"/>
    <rect style="opacity:1;fill:#dcd398;fill-opacity:1;stroke:#dcd398;stroke-width:5;stroke-dasharray:none;stroke-opacity:1;paint-order:markers fill stroke" id="rect17" width="1584" height="1584" x="32890" y="20049" rx="50.47" ry="50.47"/>
    <rect style="opacity:1;fill:#d9f5b7;fill-opacity:1;stroke:#d9f5b7;stroke-width:5;stroke-dasharray:none;stroke-opacity:1;paint-order:markers fill stroke" id="rect18" width="1584" height="1584" x="32890" y="2.396e+04" rx="50.47" ry="50.47"/>
    <rect style="opacity:1;fill:#a6cc92;fill-opacity:1;stroke:#a6cc92;stroke-width:5;stroke-dasharray:none;stroke-opacity:1;paint-order:markers fill stroke" id="rect19" width="1584" height="1584" x="32890" y="2.555e+04" rx="50.47" ry="50.47"/>
    <rect style="opacity:1;fill:#b9e7e9;fill-opacity:1;stroke:none;stroke-width:5;stroke-dasharray:none;stroke-opacity:1;paint-order:markers fill stroke" id="rect20" width="1584" height="1584" x="35290" y="2.396e+04" rx="50.47" ry="50.47"/>
    <rect style="opacity:1;fill:#50c3c8;fill-opacity:1;stroke:none;stroke-width:5;stroke-dasharray:none;stroke-opacity:1;paint-order:markers fill stroke" id="rect21" width="1584" height="1584" x="35290" y="2.555e+04" rx="50.47" ry="50.47"/>
    <rect style="opacity:1;fill:#d4e6bf;fill-opacity:1;stroke:#d4e6bf;stroke-width:5;stroke-dasharray:none;stroke-opacity:1;paint-order:markers fill stroke" id="rect22" width="1584" height="1584" x="32890" y="22376" rx="50.47" ry="50.47"/>
    <rect style="opacity:1;fill:#cdcdcd;fill-opacity:1;stroke:none;stroke-width:5;stroke-dasharray:none;stroke-opacity:1;paint-order:markers fill stroke" id="rect23" width="1584" height="1584" x="3.769e+04" y="23960" rx="50.47" ry="50.47"/>
    <rect style="opacity:1;fill:#b6b6b7;fill-opacity:1;stroke:none;stroke-width:5;stroke-dasharray:none;stroke-opacity:1;paint-order:markers fill stroke" id="rect24" width="1584" height="1584" x="3.769e+04" y="25550" rx="50.47" ry="50.47"/>
  </g>
  <g id="track" style="display:inline">
    <path d="m 11850,4243 c 430,154 760,774 650,1207 -60,378 -760,1963 -1030,2585 -860,2095 -110,2985 -810,3905 -220,340 -1514,630 -2328,940 -431,150 -755,640 -594,1140 270,770 1028,620 1408,500 1944,-620 2864,-1030 3834,-1080 1470,-90 2220,280 3740,600 1020,210 2110,-70 2810,-560 50,-60 1130,-740 1410,-880 470,-230 1130,-470 1790,-450 1010,30 1930,60 2900,110 620,30 1510,190 2150,1080 460,650 830,1750 140,2840 -940,1400 -1360,1580 -2710,4390 -280,610 -1130,770 -2700,380 -1040,-240 -2490,-1190 -2490,-1910 0,-70 0,-670 1200,-1090 410,-170 1350,-120 2700,-670 970,-400 1070,-1020 970,-1460 -90,-740 -710,-960 -1690,-1050 -1350,-130 -1880,-140 -3180,-30 -3900,300 -6440,1530 -8280,2520 -320,180 -490,-120 -650,-450 -320,-540 -650,-650 -1133,-500 -487,150 -650,530 -543,1260 380,2120 596,3360 926,5090 320,1730 -600,2180 -1302,2220 -2921,160 -3571,-240 -4490,-1350 -594,-680 -974,-1850 -272,-3610 2110,-5100 3732,-9010 5784,-14114 330,-801 690,-1887 1790,-1563 z" stroke-width="217.632" id="racetrack" style="display: inline; stroke-width: 400; stroke-dasharray: none; stroke-opacity: 1; stroke: rgb(62, 62, 62);" fill="none"/>
    <path d="M 12180 6357 C 12620 5416 12320 4753 11870 4632 C 11210 4455 10820 4934 10590 5631 C 10210 6504 9794 7646 9525 8208 C 8712 10240 8171 11730 7901 12250 C 7738 12650 7469 13060 7306 13560 C 7199 13790 7143 14100 7090 14390 C 7090 14550 6980 14750 6873 14840 C 6276 15210 5744.386 16435.072 5366.386 17285.072" stroke-width="162.28" id="path1" style="stroke-width: 400; stroke-linecap: butt; stroke-dasharray: none; stroke-opacity: 1; stroke: rgb(62, 62, 62);" fill="none"/>
    <path d="m 12180,6357 c 440,-941 140,-1604 -310,-1725 -660,-177 -1050,302 -1280,999 -380,873 -640,1451 -870,2033" stroke-width="162.28" id="pitlane" style="stroke:#3e3e3e;stroke-width:40;stroke-linecap:butt;stroke-dasharray:none;stroke-opacity:1" fill="none"/>
    <path id="rect44" style="fill:none;stroke-width:6;paint-order:markers;stroke:#d3d3d3;stroke-opacity:1" transform="rotate(-67.65)" d="m -4563,11950 c 0,-10 4,-10 9,-10 l 212,0 c 5,0 9,0 9,10 v 100 c 0,10 -4,10 -9,10 h -212 c -5,0 -9,0 -9,-10"/>
    <path style="display:inline;opacity:0.8792;fill:none;fill-opacity:1;stroke:#727272;stroke-width:5;stroke-linecap:butt;stroke-dasharray:15, 15;stroke-dashoffset:0;stroke-opacity:0;paint-order:markers" d="m 7954,12500 c -111,-50 -173,-260 -105,-400 57,-120 920,-2310 1256,-3104 67,-157 219,-46 320,-353" id="pitbox"/>
    <path style="display:inline;opacity:0.2034;fill:none;fill-opacity:1;stroke:#3e3e3e;stroke-width:5;stroke-linecap:butt;stroke-dasharray:15, 15;stroke-dashoffset:0;stroke-opacity:0;paint-order:markers" d="m 11210,6457 c 0,0 -250,477 -300,674 -50,197 190,631 150,794 -50,163 -1584,4105 -1584,4105 -50,120 -629,150 -935,390" id="garagebox"/>
  </g>
  <g id="elevated">
    <rect style="display: inline; fill: rgb(206, 206, 206); fill-opacity: 1; stroke: rgb(155, 155, 155); stroke-width: 5; stroke-dasharray: none; stroke-opacity: 1; paint-order: markers;" id="rect8" width="886.855" height="1959.049" x="12445.015" y="7085.986" transform="matrix(0.922673, 0.385584, -0.385584, 0.922673, -1798.563477, -636.773071)" ry="24.6" rx="24.6"/>
    <rect style="display:inline;fill:#cecece;fill-opacity:1;stroke:#9b9b9b;stroke-width:5;stroke-dasharray:none;stroke-opacity:1;paint-order:markers fill stroke" id="rect9" width="536.7" height="4191" x="12100" y="3440" rx="14.48" ry="14.48" transform="rotate(22.68)"/>
    <rect style="display:inline;fill:#cecece;fill-opacity:1;stroke:#9b9b9b;stroke-width:5;stroke-dasharray:none;stroke-opacity:1;paint-order:markers fill stroke" id="rect30" width="623.7" height="222" x="1.205e+04" y="7566" rx="14.27" ry="14.27" transform="rotate(22.68)"/>
    <rect style="display:inline;fill:#cecece;fill-opacity:1;stroke:#9b9b9b;stroke-width:5;stroke-dasharray:none;stroke-opacity:1;paint-order:markers fill stroke" id="rect31" width="270.6" height="289.8" x="1.209e+04" y="7873" rx="10.78" ry="10.78" transform="rotate(22.68)"/>
    <rect style="display:inline;fill:#cecece;fill-opacity:1;stroke:#9b9b9b;stroke-width:5;stroke-dasharray:none;stroke-opacity:1;paint-order:markers fill stroke" id="rect32" width="685.6" height="442.1" x="1.295e+04" y="1.476e+04" rx="14.27" ry="14.27" transform="rotate(22.68)"/>
    <rect style="display:inline;fill:#cecece;fill-opacity:1;stroke:#9b9b9b;stroke-width:5;stroke-dasharray:none;stroke-opacity:1;paint-order:markers fill stroke" id="rect33" width="685.6" height="442.1" x="1.284e+04" y="1.553e+04" rx="14.27" ry="14.27" transform="rotate(22.68)"/>
    <rect style="display:inline;fill:#cecece;fill-opacity:1;stroke:#9b9b9b;stroke-width:5;stroke-dasharray:none;stroke-opacity:1;paint-order:markers fill stroke" id="rect34" width="790.7" height="656.5" x="-7224" y="2.225e+04" rx="14.27" ry="14.27" transform="rotate(-24.61)"/>
    <rect style="display:inline;fill:#cecece;fill-opacity:1;stroke:#9b9b9b;stroke-width:5;stroke-dasharray:none;stroke-opacity:1;paint-order:markers fill stroke" id="rect35" width="612.6" height="1120" x="12470" y="15730" rx="14.27" ry="14.27" transform="rotate(-7.099)"/>
    <rect style="display:inline;fill:#cecece;fill-opacity:1;stroke:#9b9b9b;stroke-width:5;stroke-dasharray:none;stroke-opacity:1;paint-order:markers fill stroke" id="rect36" width="480.9" height="507" x="11870" y="15730" rx="14.27" ry="14.27" transform="rotate(-7.099)"/>
    <rect style="display:inline;fill:#cecece;fill-opacity:1;stroke:#9b9b9b;stroke-width:5;stroke-dasharray:none;stroke-opacity:1;paint-order:markers fill stroke" id="rect37" width="166.5" height="814.7" x="1.475e+04" y="1.738e+04" rx="0" ry="14.27" transform="rotate(-9.657)"/>
    <rect style="display:inline;fill:#cecece;fill-opacity:1;stroke:#9b9b9b;stroke-width:5;stroke-dasharray:none;stroke-opacity:1;paint-order:markers fill stroke" id="rect38" width="166.5" height="883.9" x="-5216" y="31290" rx="0" ry="14.27" transform="rotate(-63.58)"/>
    <rect style="display:inline;fill:#cecece;fill-opacity:1;stroke:#9b9b9b;stroke-width:5;stroke-dasharray:none;stroke-opacity:1;paint-order:markers fill stroke" id="rect39" width="348.6" height="533.7" x="12380" y="14440" rx="14.27" ry="14.27" transform="rotate(22.68)"/>
    <rect style="display:inline;fill:#cecece;fill-opacity:1;stroke:#9b9b9b;stroke-width:5;stroke-dasharray:none;stroke-opacity:1;paint-order:markers fill stroke" id="rect40" width="348.6" height="533.7" x="1.201e+04" y="1.524e+04" rx="14.27" ry="14.27" transform="rotate(22.68)"/>
    <rect style="display:inline;fill:#cecece;fill-opacity:1;stroke:#9b9b9b;stroke-width:5;stroke-dasharray:none;stroke-opacity:1;paint-order:markers fill stroke" id="rect41" width="348.6" height="533.7" x="1.012e+04" y="1.217e+04" rx="14.27" ry="14.27" transform="rotate(22.68)"/>
  </g>
</svg>