<?xml version="1.0" encoding="UTF-8" standalone="no"?>
<!-- Created with Inkscape (http://www.inkscape.org/) -->

<svg
   width="555"
   height="90"
   viewBox="0 0 555 90"
   version="1.1"
   id="svg5"
   inkscape:version="1.2.2 (b0a8486541, 2022-12-01)"
   sodipodi:docname="lfo-logo-wordmark.svg"
   xmlns:inkscape="http://www.inkscape.org/namespaces/inkscape"
   xmlns:sodipodi="http://sodipodi.sourceforge.net/DTD/sodipodi-0.dtd"
   xmlns="http://www.w3.org/2000/svg"
   xmlns:svg="http://www.w3.org/2000/svg">
  <sodipodi:namedview
     id="namedview7"
     pagecolor="#c1c8cb"
     bordercolor="#6c838d"
     borderopacity="0.97647059"
     inkscape:pageshadow="0"
     inkscape:pageopacity="0.97647059"
     inkscape:pagecheckerboard="1"
     inkscape:document-units="px"
     showgrid="true"
     borderlayer="false"
     inkscape:showpageshadow="true"
     showborder="true"
     inkscape:snap-page="true"
     inkscape:deskcolor="#c1c8cb"
     inkscape:zoom="2.828"
     inkscape:cx="376.5"
     inkscape:cy="98.11"
     inkscape:window-width="2560"
     inkscape:window-height="1331"
     inkscape:window-x="0"
     inkscape:window-y="25"
     inkscape:window-maximized="1"
     inkscape:current-layer="svg5"
     showguides="true">
    <inkscape:grid
       type="xygrid"
       id="grid3109"
       originx="0"
       originy="0" />
    <sodipodi:guide
       position="553.5,56.4"
       orientation="1,0"
       id="guide1313"
       inkscape:locked="false" />
    <sodipodi:guide
       position="381.1,20.39"
       orientation="0,-1"
       id="guide1406"
       inkscape:locked="false" />
  </sodipodi:namedview>
  <defs
     id="defs2" />
  <path
     id="path53922"
     style="fill:#ffffff;stroke-width:10.0027;stroke-linecap:square;paint-order:fill markers stroke"
     d="M 338.5 17.95 L 331.4 42.3 C 331 40.44 330.2 38.77 329.1 37.38 C 327.8 35.92 326.3 34.74 324.4 33.86 C 322.5 32.97 320.5 32.58 318.1 32.58 C 315.3 32.58 312.7 33.07 310.3 34.15 C 307.7 35.23 305.6 36.61 303.5 38.47 C 301.7 40.34 300.1 42.4 298.9 44.85 C 297.4 47.31 296.5 49.87 296.1 52.71 C 295.6 56.15 296 59.2 297.2 61.85 C 298.3 64.5 300.1 66.66 302.4 68.23 C 304.9 69.7 307.9 70.5 311.4 70.5 C 314.8 70.5 318.1 69.8 320.9 68.33 C 324 66.86 326.5 64.69 328.6 62.05 C 330.9 59.29 332.5 56.05 333.5 52.41 L 343.4 17.95 L 338.5 17.95 z M 207.8 19.23 C 203.8 19.23 200 19.91 196.4 21.29 C 192.9 22.56 189.5 24.53 186.5 27.08 C 183.7 29.53 181.3 32.39 179.3 35.73 C 177.3 39.06 176.1 42.7 175.7 46.73 C 175.3 49.96 175.5 53.11 176.3 56.06 C 177.2 58.9 178.7 61.46 180.4 63.62 C 182.4 65.68 184.9 67.35 187.8 68.63 C 190.8 69.91 194 70.5 197.9 70.5 C 201.9 70.5 205.7 69.8 209.3 68.43 C 213 67.14 216.3 65.19 219.1 62.73 C 221.9 60.28 224.4 57.33 226.2 54.09 C 227.9 50.65 229.4 47.03 229.8 43.08 C 230.3 39.75 230.1 36.61 229.4 33.76 C 228.3 30.91 227 28.35 225.1 26.2 C 223.4 24.03 220.8 22.36 217.9 21.09 C 215 19.82 211.6 19.23 207.8 19.23 z M 251 20.01 C 250.2 20.01 249.6 20.2 248.9 20.5 C 248.3 20.79 247.9 21.29 247.4 21.88 C 246.9 22.47 246.7 23.06 246.7 23.65 C 246.6 24.53 246.7 25.31 247.2 26 C 247.9 26.69 248.6 27.08 249.6 27.08 C 250.2 27.08 250.9 26.88 251.3 26.58 C 252 26.3 252.6 25.8 253 25.31 C 253.5 24.72 253.9 24.03 254 23.24 C 254.1 22.36 253.9 21.58 253.2 21 C 252.6 20.3 251.8 20.01 251 20.01 z M 481.8 20.01 C 481 20.01 480.3 20.2 479.7 20.5 C 479.7 20.79 478.8 20.98 478.6 21.88 L 478.3 23.65 C 478.2 24.52 478.1 25.31 478 26 C 478.6 26.69 479.6 27.08 480.8 27.08 C 481.6 27.08 482.2 26.88 482.9 26.58 C 483.5 26.3 483.9 25.8 484 25.31 C 484.7 24.72 485.2 24.03 485.3 23.24 C 485.4 22.36 485.2 21.58 484.6 21 C 484 20.3 483.1 20.01 481.8 20.01 z M 108.3 20.11 L 99.26 51.54 C 98.95 52.23 98.74 53.11 98.53 54.29 C 98.21 55.37 98 56.35 97.9 57.23 C 97.58 59.7 97.79 61.85 98.53 63.72 C 99.26 65.58 100.5 66.96 102.4 68.03 C 104.3 69.11 106.7 69.61 109.6 69.61 L 125.6 69.61 L 129.2 57.62 L 115.9 57.62 C 115 57.62 114.3 57.43 113.8 57.13 C 113.4 56.65 113.3 56.06 113.4 55.37 C 113.4 55.07 113.5 54.68 113.6 54.29 C 113.7 54 113.9 53.6 114 53.11 L 123.6 20.11 L 108.3 20.11 z M 158 20.11 C 153.8 20.11 150 21.29 146.8 23.65 C 143.6 25.9 141.5 29.05 140.3 32.97 L 129.8 69.61 L 144.9 69.61 L 149.8 52.61 L 168.2 52.61 L 171.7 40.93 L 153.2 40.93 L 154.8 35.52 C 155.1 34.55 155.6 33.76 156.6 33.07 C 157.3 32.39 158.1 32.09 159.2 32.09 L 176.4 32.09 L 179.9 20.11 L 158 20.11 z M 431.8 24.53 L 429.1 33.56 L 422.8 33.56 L 421.5 37.88 L 427.8 37.88 L 421.7 58.9 C 421.4 59.8 421.3 60.58 421.2 61.35 C 420.8 63.91 421.2 65.97 422.5 67.44 C 423.8 68.92 426.1 69.61 428.9 69.61 L 436.8 69.61 L 438.1 65.28 L 430.7 65.28 C 429 65.28 427.7 64.9 427 64.01 C 426.5 63.12 426.3 61.85 426.5 60.38 C 426.6 59.79 426.7 59.11 426.9 58.21 L 432.8 37.88 L 446.2 37.88 L 447.5 33.56 L 434.1 33.56 L 436.6 24.53 L 431.8 24.53 z M 205.5 31.59 C 207.2 31.59 209 32.09 210.5 32.97 C 212 33.86 213 35.23 213.8 37 C 214.6 38.77 214.7 40.93 214.4 43.58 C 214.1 45.55 213.5 47.41 212.7 49.18 C 211.9 50.95 210.9 52.52 209.5 53.79 C 208.3 55.17 206.8 56.25 205.2 57.03 C 203.6 57.72 201.9 58.11 200 58.11 C 198.2 58.11 196.5 57.72 195 56.84 C 193.6 55.85 192.4 54.48 191.7 52.71 C 191 50.95 190.8 48.78 191.1 46.14 C 191.4 44.17 191.9 42.3 192.7 40.63 C 193.6 38.87 194.6 37.29 195.9 35.92 C 197.2 34.55 198.5 33.46 200.2 32.77 C 201.9 31.99 203.6 31.59 205.5 31.59 z M 275.6 32.58 C 272.6 32.58 269.7 33.17 267.1 34.45 C 264.3 35.73 261.9 37.5 260.1 39.75 C 257.9 42.01 256.4 44.85 255.4 48.3 L 249.3 69.61 L 254.3 69.61 L 260.4 48.69 C 261.2 46.05 262.2 43.88 263.7 42.11 C 265.1 40.34 267 39.06 268.9 38.18 C 270.6 37.29 272.7 36.91 274.6 36.91 C 278 36.91 280.6 37.88 282.3 39.94 C 283.9 42.01 284.7 44.56 284.2 47.71 C 284.1 48.09 284.1 48.49 284 48.78 C 284 49.18 283.9 49.58 283.8 50.06 L 278.1 69.61 L 283.1 69.61 L 288.6 50.26 C 288.7 49.77 288.8 49.28 288.9 48.78 C 289 48.3 289.1 47.8 289.2 47.31 C 289.6 44.56 289.3 42.11 288.3 39.85 C 287.4 37.59 285.9 35.92 283.6 34.64 C 281.5 33.27 278.9 32.58 275.6 32.58 z M 506.3 32.92 C 503.6 32.98 500.7 33.43 498.5 34.25 C 490.5 37.48 484.3 45.92 483.3 53.79 C 482.5 60.32 485.9 65.92 491.2 67.93 C 493.6 69.02 496.8 69.61 500.9 69.61 L 507.7 69.61 L 509.2 65.28 L 501.3 65.28 C 495.1 65.28 489.6 62.87 488.8 56.84 C 492.8 57.06 497.2 56.74 500.7 55.86 C 506 54.47 511.9 52.25 515.4 48.31 C 516.9 46.45 517.8 44.38 518.2 42.02 C 518.7 37.35 515.9 34.95 513.3 33.87 C 511.6 33.16 509 32.85 506.3 32.92 z M 245 33.56 L 234.6 69.61 L 239.4 69.61 L 249.8 33.56 L 245 33.56 z M 348.7 33.56 L 343.1 52.82 L 342.7 54.38 C 342.6 54.87 342.6 55.37 342.5 55.85 C 342.1 58.61 342.4 61.06 343.3 63.32 C 344.3 65.58 345.8 67.35 347.9 68.63 C 350.2 69.91 352.7 70.5 356 70.5 C 359.1 70.5 362.1 69.91 364.7 68.73 C 367.4 67.44 369.8 65.68 371.8 63.42 C 374 61.06 375.2 58.19 376.2 54.88 L 382.4 33.56 L 377.6 33.56 L 371.4 54.48 C 370.6 57.13 369.5 59.29 368 61.06 C 366.4 62.82 364.6 64.1 362.8 64.9 C 361 65.78 359.1 66.17 357 66.17 C 353.6 66.17 351 65.19 349.4 63.22 C 347.7 61.17 347 58.61 347.4 55.47 C 347.5 55.07 347.6 54.68 347.7 54.29 C 347.8 53.89 347.9 53.5 347.9 53.11 L 353.6 33.56 L 348.7 33.56 z M 400.5 33.56 C 398.1 33.56 395.8 34.05 394 35.14 C 392.2 36.11 390.7 37.38 389.6 38.97 C 388.4 40.63 387.8 42.3 387.6 43.97 C 387.3 45.64 387.5 47.21 388.1 48.59 C 388.8 49.96 389.8 51.05 391.1 51.82 C 392.7 52.71 394.5 53.11 396.8 53.11 L 402.5 53.11 C 404.6 53.11 406.2 53.6 407.2 54.68 C 407.9 55.76 408.2 56.94 408.1 58.4 C 407.9 59.58 407.5 60.67 406.8 61.76 C 406.1 62.82 405.1 63.62 404.1 64.31 C 402.9 64.99 401.5 65.28 400 65.28 L 382.2 65.28 L 381.1 69.61 L 399.2 69.61 C 401.7 69.61 404 69.02 406 67.93 C 408 66.76 409.5 65.28 410.8 63.52 C 412 61.65 412.7 59.79 413.1 57.72 C 413.4 56.06 413.2 54.48 412.5 53.11 C 411.9 51.73 410.8 50.65 409.3 49.77 C 407.9 48.88 406 48.49 403.5 48.49 L 398.1 48.49 C 396 48.49 394.5 48 393.7 47.03 C 392.8 46.03 392.6 44.85 392.7 43.48 C 392.8 42.49 393.2 41.62 393.8 40.74 C 394.3 39.85 395.2 39.16 396.2 38.67 C 397.1 38.08 398.4 37.79 399.7 37.79 L 415.8 37.79 L 417.1 33.56 L 400.5 33.56 z M 464.7 33.56 C 461.2 33.56 458.4 34.45 456.2 36.22 C 453.9 37.97 452.3 40.51 451.4 43.78 L 444.1 69.61 L 448.9 69.61 L 456.2 44.26 C 456.8 42.02 457.8 40.44 459.1 39.46 C 460.3 38.38 462.1 37.88 464.3 37.88 L 469.6 37.88 L 470.9 33.56 L 464.7 33.56 z M 476 33.56 L 465.7 69.61 L 470.4 69.61 L 480.9 33.56 L 476 33.56 z M 536.9 33.6 C 534.5 33.6 532.2 34.09 530.4 35.18 C 528.6 36.15 527.1 37.42 526 39.01 C 524.8 40.67 524.2 42.34 524 44.01 C 523.7 45.68 523.9 47.25 524.5 48.63 C 525.2 50 526.2 51.09 527.5 51.86 C 529.1 52.75 530.9 53.11 533.2 53.11 L 538.9 53.11 C 541 53.11 542.6 53.61 543.6 54.71 C 544.3 55.81 544.6 57.01 544.5 58.41 C 544.3 59.61 543.9 60.71 543.2 61.81 C 542.5 62.81 541.5 63.61 540.5 64.31 C 539.3 65.01 537.9 65.31 536.4 65.31 L 518.6 65.31 L 517.5 69.61 L 535.6 69.61 C 538.1 69.61 540.4 69.01 542.4 68.01 C 544.4 66.81 545.9 65.31 547.2 63.51 C 548.4 61.71 549.1 59.81 549.5 57.71 C 549.8 56.11 549.6 54.51 548.9 53.11 C 548.3 51.77 547.2 50.69 545.7 49.81 C 544.3 48.92 542.4 48.53 539.9 48.53 L 534.5 48.53 C 532.4 48.53 530.9 48.04 530.1 47.07 C 529.2 46.07 529 44.89 529.1 43.52 C 529.2 42.53 529.6 41.66 530.2 40.78 C 530.7 39.89 531.6 39.2 532.6 38.71 C 533.5 38.12 534.8 37.83 536.1 37.83 L 552.2 37.83 L 553.5 33.6 L 536.9 33.6 z M 317.7 36.91 C 320.2 36.91 322.3 37.5 324.2 38.67 C 326.1 39.85 327.3 41.52 328.1 43.67 C 329.1 45.85 329.3 48.3 328.6 51.14 C 328.3 53.89 327.3 56.44 325.6 58.7 C 324.1 60.97 322 62.82 319.7 64.21 C 317.6 65.58 315 66.27 312.3 66.27 C 309.7 66.27 307.6 65.68 305.9 64.4 C 304.1 63.22 302.8 61.55 302 59.49 C 301.1 57.43 300.9 55.07 301.2 52.52 C 301.6 49.58 302.6 46.91 304.3 44.56 C 306 42.2 307.9 40.34 310.3 38.97 C 312.5 37.59 315 36.91 317.7 36.91 z M 505.9 36.91 C 508.6 36.91 510.5 37.5 511.6 38.56 C 512.9 39.65 513.4 41.03 513.1 42.7 C 512.1 46.14 509.1 48.84 506.3 50.06 C 504.2 50.95 501.8 51.64 499.1 52.23 C 495.1 53.03 492.5 53.54 488.8 53.21 L 488.8 53.01 C 489.5 47.11 493.4 42.25 497.9 39.06 C 500.8 37.59 503.4 36.91 505.9 36.91 z " />
  <path
     id="path88972"
     style="fill:#ffffff;stroke-width:0.993985;stroke-linecap:square;paint-order:fill markers stroke"
     d="m 53.93,0.0257 c -6.93,0.3027 -12.87,5.0443 -14.85,12.0143 l -0.99,2.32 c -0.99,-1.62 -2.97,-2.82 -5.95,-3.53 -8.91,-2.33 -17.82,2.92 -19.8,11.49 l -9.903,37.24 c -1.981,8.67 2.971,17.55 10.893,19.87 3.96,0.91 7.92,0.61 10.89,-0.6 0.99,5.04 4.95,9.08 10.9,10.59 8.91,2.32 16.83,-2.82 19.8,-11.5 l 0.99,-2.32 c 0.99,1.81 3.96,3.13 5.94,3.83 8.92,2.32 17.83,-2.92 19.81,-11.5 l 9.9,-37.23 c 1.98,-8.67 -2.97,-17.56 -10.89,-19.87 -3.96,-1.018 -7.92,-0.61 -10.89,0.91 -1.98,-5.257 -5.95,-9.697 -10.9,-11.2098 -1.98,-0.4036 -2.97,-0.6053 -4.95,-0.5045 z m 0.99,9.6853 c 0,0 0.99,0.101 0.99,0.202 3.96,1.017 5.94,4.547 4.95,8.177 l -14.85,57.51 c -0.99,3.53 -4.95,5.55 -8.91,4.44 -1.98,-0.71 -4.96,-4.24 -3.96,-7.87 l 15.84,-57.51 c 0.99,-3.12 2.97,-5.049 5.94,-4.949 z m -27.73,10.199 c 0.99,0 1.98,0.1 1.98,0.3 2.97,0.81 4.96,4.24 3.97,7.87 l -9.91,37.23 c -0.99,3.63 -3.96,5.55 -6.93,4.74 -3.96,-1.01 -5.94,-4.54 -4.95,-8.17 l 9.9,-37.23 c 0.99,-2.82 2.97,-4.74 5.94,-4.74 z m 49.52,0.1 c 0,0 0.99,0.1 0.99,0.2 3.96,1.01 5.94,4.54 4.95,8.17 l -9.9,37.23 c -0.99,3.53 -3.96,5.55 -7.93,4.44 -2.97,-0.81 -4.95,-4.23 -3.96,-7.87 l 9.91,-37.23 c 0.99,-3.12 2.97,-5.04 5.94,-4.94 z" />
</svg>
